<svg xmlns="http://www.w3.org/2000/svg" viewBox="0 0 512 512" width="512" height="512">
  <defs>
    <filter id="s" x="-20%" y="-20%" width="140%" height="140%">
      <feDropShadow dx="0" dy="6" stdDeviation="10" flood-color="#0c3a24" flood-opacity="0.35"/>
    </filter>
  </defs>
  <g transform="rotate(-8 256 256)" filter="url(#s)">
    <!-- card -->
    <rect x="148" y="80" width="216" height="352" rx="26" fill="#ffffff" stroke="#15603b" stroke-width="7"/>
    <!-- centre spade -->
    <g transform="translate(196,182) scale(7.5)" fill="#15603b">
      <path d="M7.184 11.246A3.5 3.5 0 0 1 1 9c0-1.602 1.14-2.633 2.66-4.008C4.986 3.792 6.602 2.33 8 0c1.398 2.33 3.014 3.792 4.34 4.992C13.86 6.367 15 7.398 15 9a3.5 3.5 0 0 1-6.184 2.246 19.92 19.92 0 0 0 1.582 2.907c.231.35-.02.847-.438.847H6.04c-.419 0-.67-.497-.438-.847a19.919 19.919 0 0 0 1.582-2.907z"/>
    </g>
    <!-- top-left rank -->
    <text x="172" y="132" font-family="Georgia, 'Times New Roman', serif" font-size="46" font-weight="700" fill="#15603b">A</text>
    <g transform="translate(176,142) scale(1.7)" fill="#15603b">
      <path d="M7.184 11.246A3.5 3.5 0 0 1 1 9c0-1.602 1.14-2.633 2.66-4.008C4.986 3.792 6.602 2.33 8 0c1.398 2.33 3.014 3.792 4.34 4.992C13.86 6.367 15 7.398 15 9a3.5 3.5 0 0 1-6.184 2.246 19.92 19.92 0 0 0 1.582 2.907c.231.35-.02.847-.438.847H6.04c-.419 0-.67-.497-.438-.847a19.919 19.919 0 0 0 1.582-2.907z"/>
    </g>
    <!-- bottom-right rank (rotated 180) -->
    <g transform="rotate(180 256 256)">
      <text x="172" y="132" font-family="Georgia, 'Times New Roman', serif" font-size="46" font-weight="700" fill="#15603b">A</text>
      <g transform="translate(176,142) scale(1.7)" fill="#15603b">
        <path d="M7.184 11.246A3.5 3.5 0 0 1 1 9c0-1.602 1.14-2.633 2.66-4.008C4.986 3.792 6.602 2.33 8 0c1.398 2.33 3.014 3.792 4.34 4.992C13.86 6.367 15 7.398 15 9a3.5 3.5 0 0 1-6.184 2.246 19.92 19.92 0 0 0 1.582 2.907c.231.35-.02.847-.438.847H6.04c-.419 0-.67-.497-.438-.847a19.919 19.919 0 0 0 1.582-2.907z"/>
      </g>
    </g>
  </g>
</svg>
